<svg width="1200" height="630" viewBox="0 0 1200 630" fill="none" xmlns="http://www.w3.org/2000/svg">
  <!-- Background -->
  <rect width="1200" height="630" fill="#0F172A"/>

  <!-- Gradient orbs -->
  <circle cx="200" cy="150" r="300" fill="#3B82F6" fill-opacity="0.15"/>
  <circle cx="1000" cy="500" r="250" fill="#22C55E" fill-opacity="0.1"/>

  <!-- Logo -->
  <g transform="translate(100, 200)">
    <path
      d="M32 16C32 11.5817 35.5817 8 40 8H88C92.4183 8 96 11.5817 96 16V112L64 92L32 112V16Z"
      fill="#3B82F6"
      fill-opacity="0.3"
    />
    <path
      d="M32 16C32 11.5817 35.5817 8 40 8H88C92.4183 8 96 11.5817 96 16V112L64 92L32 112V16Z"
      stroke="#3B82F6"
      stroke-width="5"
      stroke-linecap="round"
      stroke-linejoin="round"
    />
    <path
      d="M48 56L60 68L80 44"
      stroke="#22C55E"
      stroke-width="5"
      stroke-linecap="round"
      stroke-linejoin="round"
    />
  </g>

  <!-- Text -->
  <text x="220" y="260" font-family="system-ui, -apple-system, sans-serif" font-size="56" font-weight="700" fill="#F1F5F9">
    WorthKeeping
  </text>

  <text x="100" y="360" font-family="system-ui, -apple-system, sans-serif" font-size="36" fill="#94A3B8">
    Never forget what you shipped
  </text>

  <text x="100" y="420" font-family="system-ui, -apple-system, sans-serif" font-size="24" fill="#64748B">
    Capture work wins in 2 seconds. Generate performance review summaries with AI.
  </text>

  <!-- Badge -->
  <g transform="translate(100, 480)">
    <rect width="200" height="40" rx="20" fill="#22C55E" fill-opacity="0.2"/>
    <text x="100" y="26" font-family="system-ui, -apple-system, sans-serif" font-size="16" font-weight="500" fill="#22C55E" text-anchor="middle">
      100% Local Storage
    </text>
  </g>

  <g transform="translate(320, 480)">
    <rect width="160" height="40" rx="20" fill="#3B82F6" fill-opacity="0.2"/>
    <text x="80" y="26" font-family="system-ui, -apple-system, sans-serif" font-size="16" font-weight="500" fill="#3B82F6" text-anchor="middle">
      Privacy First
    </text>
  </g>
</svg>
